<svg width="138" height="126" viewBox="0 0 138 126" fill="none" xmlns="http://www.w3.org/2000/svg">
<path d="M112.75 37.75V25.25H100.25V12.75H112.75V0.25H125.25V12.75H137.75V25.25H125.25V37.75H112.75ZM62.75 103.375C70.5625 103.375 77.2042 100.642 82.675 95.175C88.1458 89.7083 90.8792 83.0667 90.875 75.25C90.875 67.4375 88.1417 60.7979 82.675 55.3312C77.2083 49.8646 70.5667 47.1292 62.75 47.125C54.9375 47.125 48.2979 49.8604 42.8313 55.3312C37.3646 60.8021 34.6292 67.4417 34.625 75.25C34.625 83.0625 37.3604 89.7042 42.8313 95.175C48.3021 100.646 54.9417 103.379 62.75 103.375ZM62.75 90.875C58.375 90.875 54.6771 89.3646 51.6563 86.3438C48.6354 83.3229 47.125 79.625 47.125 75.25C47.125 70.875 48.6354 67.1771 51.6563 64.1563C54.6771 61.1354 58.375 59.625 62.75 59.625C67.125 59.625 70.8229 61.1354 73.8438 64.1563C76.8646 67.1771 78.375 70.875 78.375 75.25C78.375 79.625 76.8646 83.3229 73.8438 86.3438C70.8229 89.3646 67.125 90.875 62.75 90.875ZM12.75 125.25C9.3125 125.25 6.37083 124.027 3.925 121.581C1.47917 119.135 0.254167 116.192 0.25 112.75V37.75C0.25 34.3125 1.475 31.3708 3.925 28.925C6.375 26.4792 9.31667 25.2542 12.75 25.25H32.4375L44 12.75H87.75V37.75H100.25V50.25H125.25V112.75C125.25 116.188 124.027 119.131 121.581 121.581C119.135 124.031 116.192 125.254 112.75 125.25H12.75Z" fill="#F2123B"/>
</svg>
