<svg width="22" height="30" viewBox="0 0 22 30" fill="none" xmlns="http://www.w3.org/2000/svg">
<path d="M20.6429 10.7143C20.6429 16.05 11 28.9286 11 28.9286C11 28.9286 1.35718 16.05 1.35718 10.7143C1.35718 8.15685 2.37312 5.70416 4.18151 3.89577C5.98989 2.08738 8.44259 1.07144 11 1.07144C13.5575 1.07144 16.0102 2.08738 17.8186 3.89577C19.627 5.70416 20.6429 8.15685 20.6429 10.7143Z" stroke="black" stroke-linecap="round" stroke-linejoin="round"/>
<path d="M11.0001 13.9286C12.7753 13.9286 14.2143 12.4895 14.2143 10.7143C14.2143 8.93908 12.7753 7.5 11.0001 7.5C9.22485 7.5 7.78577 8.93908 7.78577 10.7143C7.78577 12.4895 9.22485 13.9286 11.0001 13.9286Z" stroke="black" stroke-linecap="round" stroke-linejoin="round"/>
</svg>
