<svg width="30" height="30" viewBox="0 0 30 30" fill="none" xmlns="http://www.w3.org/2000/svg">
<g clip-path="url(#clip0_1_29)">
<path d="M29.7556 8.32031C29.6696 8.19818 29.5556 8.0985 29.423 8.02966C29.2905 7.96082 29.1433 7.92484 28.9939 7.92474H9.09739L7.59129 2.73099C7.00067 0.685839 5.5972 0.465057 5.02158 0.465057H1.0058C0.491079 0.465057 0.0748291 0.881776 0.0748291 1.39599C0.0748291 1.91021 0.491548 2.3269 1.00577 2.3269H5.02108C5.14811 2.3269 5.53577 2.3269 5.80017 3.2405L10.9813 22.2816C11.0938 22.6833 11.4599 22.9608 11.8775 22.9608H24.5328C24.9256 22.9608 25.2762 22.7147 25.4089 22.3448L29.8695 9.17062C29.9722 8.88515 29.9295 8.56734 29.7556 8.32031H29.7556ZM23.8777 21.0994H12.5841L9.62066 9.78709H27.6703L23.8777 21.0994ZM22.0313 24.8476C20.7366 24.8476 19.6875 25.8966 19.6875 27.1913C19.6875 28.486 20.7366 29.5351 22.0313 29.5351C23.326 29.5351 24.375 28.486 24.375 27.1913C24.375 25.8966 23.326 24.8476 22.0313 24.8476ZM13.5938 24.8476C12.2991 24.8476 11.25 25.8966 11.25 27.1913C11.25 28.486 12.2991 29.5351 13.5938 29.5351C14.8885 29.5351 15.9375 28.486 15.9375 27.1913C15.9375 25.8966 14.8885 24.8476 13.5938 24.8476Z" fill="black"/>
</g>
<defs>
<clipPath id="clip0_1_29">
<rect width="30" height="30" fill="white"/>
</clipPath>
</defs>
</svg>
