<svg width="41" height="45" viewBox="0 0 41 45" fill="none" xmlns="http://www.w3.org/2000/svg">
<path d="M41 13.3333V21.6667C41 22.1087 40.8339 22.5326 40.5381 22.8452C40.2424 23.1577 39.8413 23.3333 39.4231 23.3333C36.1289 23.3414 32.8821 22.5043 29.9615 20.8937V29.1667C29.9615 33.3659 28.3832 37.3932 25.5738 40.3625C22.7643 43.3318 18.9539 45 14.9808 45C11.0076 45 7.19721 43.3318 4.38777 40.3625C1.57833 37.3932 0 33.3659 0 29.1667C0 21.4792 5.30438 14.6833 12.3394 13.3583C12.5664 13.3157 12.7994 13.3262 13.0221 13.389C13.2448 13.4518 13.4518 13.5655 13.6284 13.722C13.8051 13.8785 13.9471 14.0741 14.0445 14.2949C14.142 14.5157 14.1924 14.7564 14.1923 15V23.8937C14.1924 24.2092 14.1078 24.5182 13.9483 24.7848C13.7889 25.0514 13.5611 25.2648 13.2915 25.4C12.6541 25.7195 12.1095 26.2139 11.7145 26.8316C11.3195 27.4494 11.0885 28.1678 11.0457 28.912C11.0029 29.6563 11.1499 30.399 11.4712 31.0627C11.7926 31.7265 12.2765 32.2869 12.8726 32.6856C13.4687 33.0843 14.1551 33.3067 14.8603 33.3295C15.5654 33.3523 16.2634 33.1747 16.8814 32.8152C17.4994 32.4558 18.0149 31.9276 18.374 31.2859C18.7331 30.6441 18.9228 29.9123 18.9231 29.1667V1.66667C18.9231 1.22464 19.0892 0.800716 19.3849 0.488155C19.6807 0.175595 20.0818 0 20.5 0H28.3846C28.8028 0 29.2039 0.175595 29.4997 0.488155C29.7954 0.800716 29.9615 1.22464 29.9615 1.66667C29.9641 4.31799 30.9618 6.85992 32.7356 8.73469C34.5095 10.6095 36.9145 11.6639 39.4231 11.6667C39.8413 11.6667 40.2424 11.8423 40.5381 12.1548C40.8339 12.4674 41 12.8913 41 13.3333Z" fill="white"/>
</svg>
