<svg width="50" height="31" viewBox="0 0 50 31" fill="none" xmlns="http://www.w3.org/2000/svg">
<path fill-rule="evenodd" clip-rule="evenodd" d="M44.5053 21.7304C44.5053 21.7304 48.5478 26.0602 49.5478 28.0638C49.5672 28.0927 49.5824 28.1247 49.5928 28.1586C50.0003 28.8988 50.1003 29.479 49.9003 29.9074C49.5628 30.615 48.4203 30.9702 48.0328 31H40.8878C40.3903 31 39.3553 30.859 38.0953 29.9155C37.1328 29.1862 36.1753 27.9851 35.2478 26.8112C33.8628 25.0679 32.6653 23.555 31.4528 23.555C31.2996 23.5547 31.1475 23.5822 31.0028 23.6363C30.0853 23.9508 28.9203 25.3688 28.9203 29.1455C28.9203 30.3276 28.0603 31 27.4578 31H24.1852C23.0702 31 17.2652 30.5771 12.1177 24.691C5.81023 17.4846 0.145225 3.02842 0.0902252 2.901C-0.262275 1.96563 0.477726 1.45592 1.27773 1.45592H8.49273C9.46024 1.45592 9.77524 2.09034 9.99524 2.6597C10.2502 3.3131 11.1952 5.92671 12.7452 8.86295C15.2552 13.6401 16.7977 15.584 18.0302 15.584C18.2618 15.5848 18.4894 15.5193 18.6902 15.3943C20.3002 14.4345 20.0002 8.19871 19.9252 6.91359C19.9252 6.66416 19.9227 4.12918 19.0977 2.90371C18.5077 2.02528 17.5027 1.68366 16.8952 1.55895C17.0577 1.30409 17.4027 0.913678 17.8452 0.683225C18.9477 0.0867584 20.9402 0 22.9177 0H24.0152C26.1603 0.0325345 26.7153 0.181651 27.4953 0.395837C29.0653 0.802519 29.0953 1.90598 28.9578 5.66372C28.9178 6.73736 28.8753 7.94656 28.8753 9.36995C28.8753 9.6736 28.8628 10.0125 28.8628 10.3568C28.8153 12.2845 28.7528 14.4562 30.0078 15.3482C30.1705 15.4581 30.3585 15.5164 30.5503 15.5163C30.9853 15.5163 32.2878 15.5163 35.8203 8.94158C37.3703 6.03787 38.5703 2.61361 38.6528 2.35604C38.7228 2.21235 38.9328 1.80838 39.1878 1.64571C39.3692 1.54104 39.5723 1.48875 39.7778 1.49388H48.2653C49.1903 1.49388 49.8178 1.64571 49.9403 2.02528C50.1453 2.64072 49.9003 4.51959 46.0253 10.2023C45.3728 11.1485 44.8003 11.9673 44.2978 12.6831C40.7853 17.6825 40.7853 17.9347 44.5053 21.7304Z" fill="white"/>
</svg>
