<svg width="42" height="35" viewBox="0 0 42 35" fill="none" xmlns="http://www.w3.org/2000/svg">
<path d="M21.5135 0C22.6349 0.00656291 25.4407 0.0350021 28.4228 0.159697L29.4813 0.207825C32.4823 0.354397 35.4813 0.608163 36.9702 1.03913C38.9548 1.62104 40.5131 3.31427 41.0403 5.46253C41.8803 8.87524 41.9853 15.53 41.9979 17.1423L42 17.4748V17.8555C41.9853 19.4678 41.8803 26.1248 41.0403 29.5353C40.5068 31.6901 38.9464 33.3855 36.9702 33.9587C35.4813 34.3896 32.4823 34.6434 29.4813 34.79L28.4228 34.8403C25.4407 34.9628 22.6349 34.9934 21.5135 34.9978L21.02 35H20.4844C18.1113 34.9847 8.18621 34.8731 5.02765 33.9587C3.04515 33.3768 1.48477 31.6835 0.957648 29.5353C0.117606 26.1226 0.0126006 19.4678 0 17.8555V17.1423C0.0126006 15.53 0.117606 8.87305 0.957648 5.46253C1.49107 3.30771 3.05145 1.61229 5.02975 1.04131C8.18621 0.124695 18.1134 0.0131258 20.4865 0H21.5135ZM16.7987 9.84437V25.1578L29.3994 17.5011L16.7987 9.84437Z" fill="white"/>
</svg>
